<mxfile host="app.diagrams.net" modified="2023-06-28T01:16:08.558Z" agent="Mozilla/5.0 (Windows NT 10.0; Win64; x64) AppleWebKit/537.36 (KHTML, like Gecko) Chrome/114.0.0.0 Safari/537.36 Edg/114.0.1823.55" version="21.5.1" etag="_i7r1QbsN1cNBpZf0gCn" type="github">
  <diagram name="第 1 页" id="tlIzHpkCyRza4TPp-H1Q">
    <mxGraphModel>
      <root>
        <mxCell id="0" />
        <mxCell id="1" parent="0" />
      </root>
    </mxGraphModel>
  </diagram>
</mxfile>
